<?xml version="1.0" ?><svg height="240px" version="1.1" viewBox="0 0 240 240" width="240px" xmlns="http://www.w3.org/2000/svg" xmlns:xlink="http://www.w3.org/1999/xlink"><title/><desc/><g fill="none" fill-rule="evenodd" id="money-bag" stroke="none" stroke-width="1"><g id="bounding-box"><polygon id="shape" points="0 0 240 0 240 240 0 240"/></g><g id="money-bag-copy" transform="translate(56.700164, 35.000000)"><path d="M43.6934825,0.407135794 C59.617292,4.24317039 67.5791968,4.24317039 83.5030063,0.407135794 C85.4787085,-0.0688094768 89.693989,-0.0688094768 96.1488478,0.407135794 C98.9936601,0.407135794 101.299836,2.58607069 101.299836,5.27392311 C101.299836,6.0382486 101.109302,6.79182889 100.743666,7.47362757 L83.3325013,39.9413224 C112.170088,61.4356471 126.491885,89.0975179 126.297892,122.926935 C126.206203,138.916007 119.298106,180 63.299824,180 C7.30154162,180 0.164079009,146.500358 0.301756318,122.926935 C0.495719255,89.716158 14.7740584,62.1165328 43.1367736,40.1280591 L25.8447688,7.45041657 C24.57253,5.04632828 25.6038833,2.12298034 28.1483608,0.920936201 C28.8636035,0.583046268 29.6522871,0.407135794 30.4519527,0.407135794 C37.0262175,-0.135711931 41.4400608,-0.135711931 43.6934825,0.407135794 Z" id="Combined-Shape" stroke="#46AAF7" stroke-width="10"/><rect fill="#46AAF7" height="27" id="tie" rx="5" width="10" x="49.2998361" y="37"/><rect fill="#46AAF7" height="10" id="tie" rx="5" width="63" x="32" y="34"/><rect fill="#E8F7FF" height="24" id="coin" rx="12" stroke="#46AAF7" stroke-width="10" width="55" x="90" y="156"/><rect fill="#E8F7FF" height="24" id="coin" rx="12" stroke="#46AAF7" stroke-width="10" width="55" x="77.2998361" y="132"/><rect fill="#E8F7FF" height="24" id="coin" rx="12" stroke="#46AAF7" stroke-width="10" width="55" x="90.2998361" y="108"/></g></g></svg>