<?xml version="1.0" ?><svg data-name="Layer 1" id="Layer_1" viewBox="0 0 64 64" xmlns="http://www.w3.org/2000/svg"><title/><path d="M33,37a1,1,0,0,0-2,0v1.142A4,4,0,0,0,28,42v2a4,4,0,0,0,3,3.858v5.864A1.993,1.993,0,0,1,30,52V50a1,1,0,0,0-2,0v2a4,4,0,0,0,3,3.858V57a1,1,0,0,0,2,0V55.858A4,4,0,0,0,36,52V50a4,4,0,0,0-3-3.858V40.278A1.993,1.993,0,0,1,34,42v2a1,1,0,0,0,2,0V42a4,4,0,0,0-3-3.858Zm-2,8.722A1.993,1.993,0,0,1,30,44V42a1.993,1.993,0,0,1,1-1.722ZM34,50v2a1.993,1.993,0,0,1-1,1.722V48.278A1.993,1.993,0,0,1,34,50Z"/><path d="M49,18.142V17a1,1,0,0,0-2,0v1.142A4,4,0,0,0,44,22v2a4,4,0,0,0,3,3.858v5.864A1.993,1.993,0,0,1,46,32V30a1,1,0,0,0-2,0v2a4,4,0,0,0,3,3.858V37a1,1,0,0,0,2,0V35.858A4,4,0,0,0,52,32V30a4,4,0,0,0-3-3.858V20.278A1.993,1.993,0,0,1,50,22v2a1,1,0,0,0,2,0V22A4,4,0,0,0,49,18.142Zm-2,7.58A1.993,1.993,0,0,1,46,24V22a1.993,1.993,0,0,1,1-1.722ZM50,30v2a1.993,1.993,0,0,1-1,1.722V28.278A1.993,1.993,0,0,1,50,30Z"/><path d="M17,18.142V17a1,1,0,0,0-2,0v1.142A4,4,0,0,0,12,22v2a4,4,0,0,0,3,3.858v5.864A1.993,1.993,0,0,1,14,32V30a1,1,0,0,0-2,0v2a4,4,0,0,0,3,3.858V37a1,1,0,0,0,2,0V35.858A4,4,0,0,0,20,32V30a4,4,0,0,0-3-3.858V20.278A1.993,1.993,0,0,1,18,22v2a1,1,0,0,0,2,0V22A4,4,0,0,0,17,18.142Zm-2,7.58A1.993,1.993,0,0,1,14,24V22a1.993,1.993,0,0,1,1-1.722ZM18,30v2a1.993,1.993,0,0,1-1,1.722V28.278A1.993,1.993,0,0,1,18,30Z"/><path d="M52.072,12.956l2.539-6.484A2.956,2.956,0,0,0,54.23,3.01a2.932,2.932,0,0,0-3.442-.742L48.4,3.337a.971.971,0,0,1-.8,0L45.212,2.269a2.927,2.927,0,0,0-3.442.741,2.956,2.956,0,0,0-.381,3.462l2.539,6.484-5.665,10.1c-.012-.013-.02-.029-.033-.042a2.932,2.932,0,0,0-3.442-.742L32.4,23.337a.968.968,0,0,1-.8,0l-2.389-1.067a2.925,2.925,0,0,0-3.442.741c-.012.013-.021.028-.032.041L20.072,12.956l2.539-6.484A2.956,2.956,0,0,0,22.23,3.01a2.932,2.932,0,0,0-3.442-.742L16.4,3.337a.971.971,0,0,1-.8,0L13.212,2.269A2.927,2.927,0,0,0,9.77,3.01a2.956,2.956,0,0,0-.381,3.462l2.539,6.484L3.178,28.539A9.016,9.016,0,0,0,3.255,37.6,8.754,8.754,0,0,0,10.87,42H21.13a8.77,8.77,0,0,0,1.84-.215l-3.794,6.756a9.02,9.02,0,0,0,.081,9.059A8.759,8.759,0,0,0,26.875,62h10.25a8.759,8.759,0,0,0,7.618-4.4,9.02,9.02,0,0,0,.081-9.059L41.03,41.785A8.77,8.77,0,0,0,42.87,42H53.13a8.755,8.755,0,0,0,7.615-4.4,9.014,9.014,0,0,0,.077-9.056ZM43.224,5.673a1.063,1.063,0,0,0-.072-.148.975.975,0,0,1,.112-1.186A.949.949,0,0,1,44.4,4.094l2.388,1.068a2.98,2.98,0,0,0,2.431,0L51.6,4.094a.949.949,0,0,1,1.132.245.975.975,0,0,1,.112,1.186,1.063,1.063,0,0,0-.072.148L50.3,12H45.7ZM27.264,24.339a.947.947,0,0,1,1.132-.245l2.388,1.068a2.98,2.98,0,0,0,2.431,0L35.6,24.094a.95.95,0,0,1,1.132.245.975.975,0,0,1,.112,1.186,1.063,1.063,0,0,0-.072.148L34.3,32H29.7l-2.478-6.327a1.063,1.063,0,0,0-.072-.148A.975.975,0,0,1,27.264,24.339ZM11.224,5.673a1.063,1.063,0,0,0-.072-.148.975.975,0,0,1,.112-1.186A.949.949,0,0,1,12.4,4.094l2.388,1.068a2.98,2.98,0,0,0,2.431,0L19.6,4.094a.949.949,0,0,1,1.132.245.975.975,0,0,1,.112,1.186,1.063,1.063,0,0,0-.072.148L18.3,12H13.7ZM21.13,40H10.87a6.775,6.775,0,0,1-5.889-3.414,7.031,7.031,0,0,1-.059-7.066L13.635,14h4.73l7.082,12.62,2.481,6.337L24.479,39.1A6.608,6.608,0,0,1,21.13,40Zm21.95,9.521a7.037,7.037,0,0,1-.063,7.069A6.778,6.778,0,0,1,37.125,60H26.875a6.778,6.778,0,0,1-5.892-3.41,7.037,7.037,0,0,1-.063-7.069L29.637,34h4.726ZM59.019,36.586A6.775,6.775,0,0,1,53.13,40H42.87a6.608,6.608,0,0,1-3.349-.9l-3.449-6.142,2.481-6.337L45.635,14h4.73l8.714,15.521A7.032,7.032,0,0,1,59.019,36.586Z"/></svg>