<?xml version="1.0" encoding="utf-8"?><svg viewBox="0 0 168 153" xmlns="http://www.w3.org/2000/svg" xmlns:xlink="http://www.w3.org/1999/xlink"><style>:root>svg{display:none}:root>svg:target{display:block}</style><svg viewBox="0 0 64 64" id="3709755_always_hours_service_support_time_icon" xmlns="http://www.w3.org/2000/svg"><path d="M46 22h-6.671l5.557-6.352A4.498 4.498 0 0046 12.685V12.5c0-2.481-2.019-4.5-4.5-4.5S37 10.019 37 12.5V14h2v-1.5c0-1.379 1.121-2.5 2.5-2.5s2.5 1.121 2.5 2.5v.185c0 .606-.22 1.19-.619 1.646L37 21.624V24h9v-2zm8 2h2v-3h2v-2h-2V8h-2.618L48 18.764V21h6v3zm-3.882-5L54 11.236V19h-3.882z"/><path d="M50.405 32.627C57.596 31.061 63 24.653 63 17c0-8.822-7.178-16-16-16-7.653 0-14.061 5.404-15.627 12.595A25.033 25.033 0 0026 13C12.215 13 1 24.215 1 38s11.215 25 25 25 25-11.215 25-25c0-1.807-.207-3.608-.595-5.373zM47 3c7.72 0 14 6.28 14 14s-6.28 14-14 14-14-6.28-14-14S39.28 3 47 3zm-2.039 34H43v2h1.949a18.897 18.897 0 01-4.847 11.688l-1.375-1.375-1.414 1.414 1.375 1.375A18.892 18.892 0 0127 56.949V55h-2v1.949a18.897 18.897 0 01-11.688-4.847l1.375-1.375-1.414-1.414-1.375 1.375A18.892 18.892 0 017.051 39H9v-2H7.051a18.897 18.897 0 014.847-11.688l1.375 1.375 1.414-1.414-1.375-1.375A18.892 18.892 0 0125 19.051V21h2v-1.961c1.438.076 2.862.318 4.255.72 1.156 6.611 6.374 11.829 12.986 12.986.401 1.393.643 2.817.72 4.255zM26 61C13.317 61 3 50.683 3 38s10.317-23 23-23c1.706 0 3.407.201 5.072.577-.042.47-.072.943-.072 1.423 0 .209.023.413.031.621A20.896 20.896 0 0026 17C14.421 17 5 26.421 5 38s9.421 21 21 21 21-9.421 21-21c0-1.695-.212-3.381-.621-5.031.208.008.412.031.621.031.48 0 .953-.03 1.423-.072.376 1.665.577 3.366.577 5.072 0 12.683-10.317 23-23 23z"/><path d="M29 38a2.996 2.996 0 00-2-2.816V23h-2v12.184A2.996 2.996 0 0023 38c0 1.654 1.346 3 3 3a2.95 2.95 0 001.285-.301l7.008 7.008 1.414-1.414-7.008-7.008A2.95 2.95 0 0029 38zm-4 0a1 1 0 112 0 1 1 0 01-2 0zm31-3c-1.654 0-3 1.346-3 3 0 1.251.771 2.324 1.862 2.773A28.973 28.973 0 0146.71 58.3l1.428 1.4a30.975 30.975 0 008.725-18.842A2.993 2.993 0 0059 38c0-1.654-1.346-3-3-3zm0 4a1 1 0 110-2 1 1 0 010 2zM6.283 16.733c4.658-4.321 10.651-6.978 16.949-7.579A3.005 3.005 0 0026 11c1.654 0 3-1.346 3-3s-1.346-3-3-3a2.993 2.993 0 00-2.858 2.137 31.053 31.053 0 00-18.218 8.13l1.359 1.466zM26 7a1 1 0 110 2 1 1 0 010-2z"/></svg><svg viewBox="0 0 64 64" id="4313139_briber_criminal_money_news_reporter_icon" xmlns="http://www.w3.org/2000/svg"><path d="M46 34h-2c0 1.103-.897 2-2 2s-2-.897-2-2h-2c0 2.206 1.794 4 4 4s4-1.794 4-4z"/><path d="M58.214 46.685L48 43.279v-2.072a11.034 11.034 0 004.589-6.267C55.066 34.645 57 32.555 57 30v-8c0-8.271-6.729-15-15-15-6.944 0-12.784 4.749-14.485 11.166-.178-.201-.346-.411-.536-.601l-5.674-5.674 4.136-5.789c.366-.51.559-1.113.559-1.743V4c0-1.654-1.346-3-3-3-1.33 0-2.036.808-2.504 1.342-.436.497-.61.658-.999.658-.39 0-.563-.161-1-.659C18.029 1.807 17.323 1 15.994 1c-1.328 0-2.034.808-2.502 1.342-.434.497-.608.658-.996.658s-.561-.161-.995-.658C11.034 1.808 10.328 1 9 1 7.346 1 6 2.346 6 4v.359c0 .63.193 1.232.559 1.743l4.136 5.789-5.674 5.674A13.637 13.637 0 001 27.272C1 34.842 7.158 41 14.728 41h2.545c4.934 0 9.463-2.667 11.895-6.888.652.451 1.42.73 2.244.828a11.026 11.026 0 004.589 6.267v2.072l-10.214 3.405A6.99 6.99 0 0021 53.324V63h42v-9.676a6.99 6.99 0 00-4.786-6.639zm-5.256-13.856c.021-.275.042-.549.042-.829v-4.816c1.161.414 2 1.514 2 2.816a2.995 2.995 0 01-2.042 2.829zM42 9c7.168 0 13 5.832 13 13v4.026a4.952 4.952 0 00-2-.924V23h-3a9.043 9.043 0 01-7.2-3.601l-.8-1.065-.8 1.065A9.043 9.043 0 0134 23h-3v2.101a4.965 4.965 0 00-2 .924V22c0-7.168 5.832-13 13-13zM8 4.359V4a1 1 0 011-1c.388 0 .561.161.995.658C10.462 4.192 11.168 5 12.496 5s2.034-.808 2.502-1.342c.435-.497.608-.658.996-.658.389 0 .562.161.999.658C17.461 4.192 18.167 5 19.497 5c1.329 0 2.035-.807 2.503-1.341.437-.498.61-.659 1-.659a1 1 0 011 1v.359a.99.99 0 01-.186.581L19.486 11h-6.972L8.186 4.94A.988.988 0 018 4.359zM17.272 39h-2.545C8.261 39 3 33.739 3 27.272c0-3.133 1.22-6.078 3.435-8.293L12.414 13h7.172l5.979 5.979c.562.562 1.057 1.19 1.494 1.854-.03.386-.059.773-.059 1.167v8c0 .942.277 1.814.732 2.567A11.752 11.752 0 0117.272 39zM29 30c0-1.302.839-2.402 2-2.816V32c0 .28.021.554.042.829A2.995 2.995 0 0129 30zm4 2v-7h1c3.028 0 5.937-1.271 8-3.452A11.058 11.058 0 0050 25h1v7c0 4.963-4.037 9-9 9s-9-4.037-9-9zm9 11c1.412 0 2.758-.277 4-.764v1.35l-4 4-4-4v-1.35c1.242.487 2.588.764 4 .764zm9 14h-2a5.01 5.01 0 00-4.899 4h-4.202A5.009 5.009 0 0035 57h-2v-6h18v6zm-28-3.676a4.993 4.993 0 013.419-4.743l10.311-3.437L40.586 49H31v8h-2v-4h-2v6h8c1.302 0 2.402.839 2.816 2H23v-7.676zM61 61H46.184A2.996 2.996 0 0149 59h8v-6h-2v4h-2v-8h-9.586l3.856-3.856 10.311 3.437A4.994 4.994 0 0161 53.324V61z"/><circle cx="37" cy="28" r="1"/><circle cx="47" cy="28" r="1"/><path d="M9.263 21.808l1.101-1.101-1.414-1.414-1.101 1.101a9.928 9.928 0 00-.874 1.001l1.592 1.211a7.68 7.68 0 01.696-.798zM7 27.272c0-1.007.188-1.981.559-2.897l-1.854-.75A9.668 9.668 0 005 27.272c0 4.614 3.281 8.625 7.803 9.536l.395-1.961C9.606 34.124 7 30.938 7 27.272zM16 21c1.103 0 2 .897 2 2h2c0-1.859-1.279-3.411-3-3.858V17h-2v2.142c-1.721.447-3 1.999-3 3.858 0 2.206 1.794 4 4 4 1.103 0 2 .897 2 2s-.897 2-2 2-2-.897-2-2h-2c0 1.859 1.279 3.411 3 3.858V35h2v-2.142c1.721-.447 3-1.999 3-3.858 0-2.206-1.794-4-4-4-1.103 0-2-.897-2-2s.897-2 2-2z"/></svg><svg viewBox="0 0 24 23.75" id="4634978_pig_coin_financial_money_icon" xmlns="http://www.w3.org/2000/svg"><g data-name="Camada 2"><g data-name="Camada 1"><path d="M23.5 12.24h-1.11a7 7 0 00-4.12-4.51 4.74 4.74 0 001-2.94 4.79 4.79 0 00-9.58 0 4.74 4.74 0 001.13 3.06c-.58.16-1.44.43-2.53.83a16.54 16.54 0 00-3.04-3.17.5.5 0 00-.81.4V11A18.66 18.66 0 002 13.36H.5a.5.5 0 00-.5.5v3.73a.5.5 0 00.3.46l6.95 3v1.22a1.5 1.5 0 001.49 1.49h1.53a1.5 1.5 0 001.49-1.49V21.2h3.85v1.05a1.5 1.5 0 001.49 1.49h1.53a1.5 1.5 0 001.49-1.49v-2.67a6.79 6.79 0 002.47-6.35h.89a.5.5 0 000-1zM14.52 1a3.79 3.79 0 11-3.79 3.79A3.79 3.79 0 0114.52 1zm4.82 18l-.07.08v.07a.5.5 0 000 .09.52.52 0 000 .1v2.9a.5.5 0 01-.49.49h-1.66a.5.5 0 01-.49-.49v-1.6a61.24 61.24 0 010-.18l-.05-.08-.06-.08h-.07l-.09-.05h-5.09a.5.5 0 00-.5.5v1.55a.5.5 0 01-.49.49H8.75a.5.5 0 01-.49-.49v-1.59a.49.49 0 000-.16.47.47 0 00-.05-.08.35.35 0 00-.21-.21l-7-3v-2.9h1.24a.5.5 0 00.4-.19 17.11 17.11 0 012.62-2.56l.07-.08v-.07a.47.47 0 000-.09.48.48 0 000-.1V7A11.48 11.48 0 017.7 9.52a.49.49 0 00.15.16.49.49 0 00.22.07h.23c1.74-.64 3-1 3.41-1.09a4.7 4.7 0 005.79-.16A6 6 0 0119.34 19z"/><circle cx="5.38" cy="14.02" r=".96"/><path d="M17.88 10.11h-6.73a.5.5 0 000 1h6.73a.5.5 0 000-1z"/></g></g></svg><svg viewBox="0 0 23.5 16.39" id="4634990_gold_financial_money_yellow_icon" xmlns="http://www.w3.org/2000/svg"><g data-name="Camada 2"><path d="M23.49 15.78l-1.19-5.13a.5.5 0 00-.49-.39h-2.16l-1.1-4.74a.5.5 0 00-.49-.39H15.9L14.8.39a.5.5 0 00-.48-.39H9.19a.5.5 0 00-.49.39L7.6 5.13H5.44a.5.5 0 00-.49.39l-1.1 4.74H1.69a.5.5 0 00-.49.39L0 15.78a.5.5 0 00.49.61H23a.5.5 0 00.49-.61zm-4.87-5.52h-6.24l1-4.13h4.33zm-3.12 3.41l-.56-2.41h1.11zm-3.75-5.13l-.56-2.41h1.11zM9.58 1h4.33l1 4.13H8.63zM5.83 6.13h4.33l1 4.13H4.88zM8 13.67l-.56-2.41h1.12zm-6.87 1.72l1-4.13h4.29l1 4.13zm7.5 0l1-4.13h4.33l1 4.13zm7.5 0l1-4.13h4.33l1 4.13z" data-name="Camada 1"/></g></svg><svg viewBox="0 0 21.54 23.94" id="4635003_bag_$_financial_money_icon" xmlns="http://www.w3.org/2000/svg"><g data-name="Camada 2"><g data-name="Camada 1"><path d="M21.5 23.26c-.19-.48-.7-1.85-.81-2.35a32.44 32.44 0 010-5.63 9.91 9.91 0 00-9-9.86L14.93.79a.5.5 0 00-.41-.79H7a.5.5 0 00-.41.79l3.25 4.64A9.92 9.92 0 00.9 15.31a32.12 32.12 0 010 5.6 21.83 21.83 0 01-.9 2.34.5.5 0 00.46.7H21a.5.5 0 00.47-.68zM13.56 1l-2.79 4L8 1zM1.25 22.94a15.11 15.11 0 00.64-1.82 33.63 33.63 0 000-5.85 8.9 8.9 0 0117.8 0 33.87 33.87 0 000 5.88 18.43 18.43 0 00.6 1.82z"/><path d="M12.6 15.22a6.94 6.94 0 00-1.42-.45 7.76 7.76 0 01-1-.3 1.29 1.29 0 01-.5-.32.66.66 0 01-.16-.45.69.69 0 01.31-.61 1.54 1.54 0 01.87-.21 1.52 1.52 0 01.83.21.81.81 0 01.4.54.29.29 0 00.29.18h.95a.2.2 0 00.21-.21 1.59 1.59 0 00-.26-.76 2.22 2.22 0 00-.71-.69 2.76 2.76 0 00-1.12-.39v-.71a.22.22 0 00-.24-.24h-.62a.24.24 0 00-.17.06.23.23 0 00-.07.17v.69a2.63 2.63 0 00-1.54.66 1.76 1.76 0 00-.56 1.32A1.63 1.63 0 008.65 15a4.26 4.26 0 001.73.74q.71.19 1.07.33a1.5 1.5 0 01.54.31.61.61 0 01.18.45.73.73 0 01-.35.64 1.9 1.9 0 01-1 .24 1.78 1.78 0 01-1-.23 1.07 1.07 0 01-.48-.48.47.47 0 00-.12-.15.32.32 0 00-.19 0h-.9a.21.21 0 00-.16.06.2.2 0 00-.06.15 1.69 1.69 0 00.29.87 2.1 2.1 0 00.78.69 3.22 3.22 0 001.23.35v.7a.23.23 0 00.07.18.24.24 0 00.17.06h.62a.22.22 0 00.24-.24v-.7a3 3 0 001.69-.74 1.77 1.77 0 00.63-1.41 1.73 1.73 0 00-.25-1 1.84 1.84 0 00-.78-.6z"/></g></g></svg><svg data-name="Layer 1" viewBox="0 0 64 64" id="6602135_bursary_exchequer_finance_investment_money_icon" xmlns="http://www.w3.org/2000/svg"><path d="M33 37a1 1 0 00-2 0v1.142A4 4 0 0028 42v2a4 4 0 003 3.858v5.864A1.993 1.993 0 0130 52v-2a1 1 0 00-2 0v2a4 4 0 003 3.858V57a1 1 0 002 0v-1.142A4 4 0 0036 52v-2a4 4 0 00-3-3.858v-5.864A1.993 1.993 0 0134 42v2a1 1 0 002 0v-2a4 4 0 00-3-3.858zm-2 8.722A1.993 1.993 0 0130 44v-2a1.993 1.993 0 011-1.722zM34 50v2a1.993 1.993 0 01-1 1.722v-5.444A1.993 1.993 0 0134 50zm15-31.858V17a1 1 0 00-2 0v1.142A4 4 0 0044 22v2a4 4 0 003 3.858v5.864A1.993 1.993 0 0146 32v-2a1 1 0 00-2 0v2a4 4 0 003 3.858V37a1 1 0 002 0v-1.142A4 4 0 0052 32v-2a4 4 0 00-3-3.858v-5.864A1.993 1.993 0 0150 22v2a1 1 0 002 0v-2a4 4 0 00-3-3.858zm-2 7.58A1.993 1.993 0 0146 24v-2a1.993 1.993 0 011-1.722zM50 30v2a1.993 1.993 0 01-1 1.722v-5.444A1.993 1.993 0 0150 30zM17 18.142V17a1 1 0 00-2 0v1.142A4 4 0 0012 22v2a4 4 0 003 3.858v5.864A1.993 1.993 0 0114 32v-2a1 1 0 00-2 0v2a4 4 0 003 3.858V37a1 1 0 002 0v-1.142A4 4 0 0020 32v-2a4 4 0 00-3-3.858v-5.864A1.993 1.993 0 0118 22v2a1 1 0 002 0v-2a4 4 0 00-3-3.858zm-2 7.58A1.993 1.993 0 0114 24v-2a1.993 1.993 0 011-1.722zM18 30v2a1.993 1.993 0 01-1 1.722v-5.444A1.993 1.993 0 0118 30z"/><path d="M52.072 12.956l2.539-6.484a2.956 2.956 0 00-.381-3.462 2.932 2.932 0 00-3.442-.742L48.4 3.337a.971.971 0 01-.8 0l-2.388-1.068a2.927 2.927 0 00-3.442.741 2.956 2.956 0 00-.381 3.462l2.539 6.484-5.665 10.1c-.012-.013-.02-.029-.033-.042a2.932 2.932 0 00-3.442-.742L32.4 23.337a.968.968 0 01-.8 0l-2.389-1.067a2.925 2.925 0 00-3.442.741c-.012.013-.021.028-.032.041l-5.665-10.096 2.539-6.484a2.956 2.956 0 00-.381-3.462 2.932 2.932 0 00-3.442-.742L16.4 3.337a.971.971 0 01-.8 0l-2.388-1.068a2.927 2.927 0 00-3.442.741 2.956 2.956 0 00-.381 3.462l2.539 6.484-8.75 15.583a9.016 9.016 0 00.077 9.061A8.754 8.754 0 0010.87 42h10.26a8.77 8.77 0 001.84-.215l-3.794 6.756a9.02 9.02 0 00.081 9.059 8.759 8.759 0 007.618 4.4h10.25a8.759 8.759 0 007.618-4.4 9.02 9.02 0 00.081-9.059l-3.794-6.756a8.77 8.77 0 001.84.215h10.26a8.755 8.755 0 007.615-4.4 9.014 9.014 0 00.077-9.056zm-8.848-7.283a1.063 1.063 0 00-.072-.148.975.975 0 01.112-1.186.949.949 0 011.136-.245l2.388 1.068a2.98 2.98 0 002.431 0L51.6 4.094a.949.949 0 011.132.245.975.975 0 01.112 1.186 1.063 1.063 0 00-.072.148L50.3 12h-4.6zm-15.96 18.666a.947.947 0 011.132-.245l2.388 1.068a2.98 2.98 0 002.431 0l2.385-1.068a.95.95 0 011.132.245.975.975 0 01.112 1.186 1.063 1.063 0 00-.072.148L34.3 32h-4.6l-2.478-6.327a1.063 1.063 0 00-.072-.148.975.975 0 01.114-1.186zM11.224 5.673a1.063 1.063 0 00-.072-.148.975.975 0 01.112-1.186.949.949 0 011.136-.245l2.388 1.068a2.98 2.98 0 002.431 0L19.6 4.094a.949.949 0 011.132.245.975.975 0 01.112 1.186 1.063 1.063 0 00-.072.148L18.3 12h-4.6zM21.13 40H10.87a6.775 6.775 0 01-5.889-3.414 7.031 7.031 0 01-.059-7.066L13.635 14h4.73l7.082 12.62 2.481 6.337-3.449 6.143a6.608 6.608 0 01-3.349.9zm21.95 9.521a7.037 7.037 0 01-.063 7.069A6.778 6.778 0 0137.125 60h-10.25a6.778 6.778 0 01-5.892-3.41 7.037 7.037 0 01-.063-7.069L29.637 34h4.726zm15.939-12.935A6.775 6.775 0 0153.13 40H42.87a6.608 6.608 0 01-3.349-.9l-3.449-6.142 2.481-6.337L45.635 14h4.73l8.714 15.521a7.032 7.032 0 01-.06 7.065z"/></svg><svg viewBox="0 0 168 153" id="9165458_saving_money_icon" xmlns="http://www.w3.org/2000/svg"><g clip-path="url(#ga)"><path d="M38.607 139.004c-.984 3.55-1.534 4.553-2.524 7.839a5.685 5.685 0 01-4.764 4.257c-6.433.946-12.872 2.069-19.414 1.142-6.001-.853-9.834-4.618-10.134-10.674-.51-10.313-.69-20.642-.957-30.966-.078-3.028-.118-6.069.072-9.089.386-6.133 3.262-9.4 9.386-9.817 6.71-.46 13.463-.347 20.197-.356 2.645-.003 4.281 1.763 5.448 3.941.575 1.076.984 2.238 1.44 3.282 4.19-.59 8.245-1.336 12.332-1.701 7.478-.667 14.842.131 21.806 3.03 8.107 3.377 16.47 4.097 25.102 3.272a26.145 26.145 0 016.367.206c6.908 1.05 10.229 6.179 8.503 12.903-.138.536-.344 1.05-.718 2.182 2.425-.176 4.571-.258 6.699-.498 9.12-1.032 17.625-4.282 26.188-7.324 3.803-1.351 7.568-2.852 11.451-3.915a21.715 21.715 0 016.981-.615c4.154.263 6.09 3.282 5.027 7.275-.872 3.282-2.877 5.786-5.331 8.007-7.114 6.433-15.446 10.727-24.429 13.864-12.646 4.415-25.563 7.724-38.889 9.268-17.672 2.153-35.849 2.174-52.687-3.606-2.403-.832-4.905-1.173-7.152-1.907zm.124-6.365c4.07 1.073 7.84 2.085 11.617 3.059 11.81 3.04 23.816 4.768 35.999 3.947 18.18-1.224 35.601-5.915 52.494-12.612a59.559 59.559 0 0017.758-10.787 40.599 40.599 0 003.213-3.586l-.561-.844c-2.418.717-4.865 1.35-7.249 2.166-8.274 2.832-16.466 5.918-24.804 8.54-6.583 2.069-13.371 2.918-20.281 1.421a4.684 4.684 0 00-2.872.448c-8.778 4.457-18.257 5.26-27.846 5.312a24.848 24.848 0 01-6.573-1.208 2.51 2.51 0 01-1.63-1.159 2.518 2.518 0 01-.274-1.981 4.951 4.951 0 012.05-2.746 9.568 9.568 0 013.897-.899c3.694-.293 7.397-.459 11.097-.664 5.185-.291 10.32-.967 15.065-3.157a15.16 15.16 0 005.049-3.727c1.72-2.003.804-3.972-1.838-4.24a39.005 39.005 0 00-6.385.072c-8.73.561-17.275-.04-25.418-3.613a43.333 43.333 0 00-4.74-1.73 44.317 44.317 0 00-24.91-.447c-3.18.853-3.15.991-2.982 4.181.268 5.156.622 10.311.716 15.472.052 2.783-.36 5.574-.594 8.783l.002-.001zm-9.353-34.964c-5.382 0-10.522-.05-15.663.015-4.604.058-5.752 1.23-5.852 5.827-.257 11.776-.641 23.552-.656 35.328-.006 4.988 2.47 6.614 6.01 6.349 4.695-.351 9.387-.776 14.061-1.338 2.466-.296 2.9-1.061 2.857-3.65a49.036 49.036 0 01-.018-6.387c1.247-10.884.366-21.746-.175-32.613a34.375 34.375 0 00-.566-3.53h.002zm66.23-56.79c7.178 4.91 9.836 12.166 10.637 20.436 1.402 14.49-7.196 23.516-17.279 27.37-8.307 3.178-16.828 4.791-25.668 2.196-10.251-3.01-16.297-11.232-16.675-21.889-.472-13.315 7.51-25.448 20.598-30.796 7.968-3.252 23.446-.697 28.387 2.683zM71.243 84.797c4.34.518 12.237-1.346 16.146-3.065 7.211-3.172 12.493-9.01 11.266-19.67-1.024-8.89-5.537-15.663-14.145-17.445-4.492-.93-13.268-1.348-17.732.547-9.748 4.134-13.533 13.914-13.025 24.601.498 10.45 11.027 14.263 17.49 15.034v-.002z"/><path d="M18.485 112.204c-2.921.035-4.973-1.842-5.078-4.644-.118-3.213 2.414-6.028 5.439-6.047 3.511-.02 6.224 2.035 6.247 4.726.025 2.905-3.324 5.924-6.608 5.965zm59.472-57.448v7.972c1.163.438 2.25.8 3.298 1.251 4.123 1.773 5.137 5.648 2.434 9.211-1.116 1.468-1.993 2.062-5.276 3.57-.31 1.575-.622 3.126-.92 4.68-.164.867-.577 1.538-1.523 1.56-.998.023-1.348-.788-1.526-1.573-.334-1.47-.561-2.965-.864-4.62-1.207-.323-2.522-.664-3.83-1.028a11.868 11.868 0 01-1.854-.6 2.239 2.239 0 01-1.448-2.617c.212-1.043 1.108-1.703 2.489-1.613 1.503.099 2.997.354 4.457.536.61-1.681.68-2.682.414-5.545-1.017-.381-2.118-.718-3.15-1.196-4.19-1.932-5.114-6.117-2.145-9.657a11.057 11.057 0 014.677-3.435 2.18 2.18 0 001.61-2.25c.01-.795.183-1.578.508-2.303a1.693 1.693 0 011.331-.818 1.714 1.714 0 011.148 1.07c.182.928.28 1.869.296 2.813.998.227 1.984.506 2.953.834 1.548.61 2.28 1.81 2.092 3.178-.167 1.21-.826 1.62-1.955 1.123-.988-.433-1.909-1.078-3.216-.543zm-3.82 1.58c-2.12 1.259-3.205 2.597-2.813 3.594.468 1.191 1.554 1.491 2.813 1.655v-5.248zM78.1 71.279c1.41-.52 2.701-1.143 2.659-2.57-.037-1.198-1.356-1.444-2.429-1.606-.062-.009-.131.046-.404.148 0 .834-.015 1.746.008 2.657.01.4.094.797.166 1.37zm53.53-52.852v7.974c1.162.437 2.248.799 3.296 1.247 4.124 1.772 5.138 5.648 2.435 9.211-1.116 1.467-1.993 2.061-5.276 3.57-.31 1.575-.622 2.47-.919 4.023-.165.867-.579 1.538-1.524 1.56-.998.023-1.349-.788-1.526-1.572-.334-1.47-.561-2.309-.864-3.965-1.207-.323-2.521-.664-3.83-1.027a11.96 11.96 0 01-1.854-.601 2.24 2.24 0 01-1.448-2.617c.212-1.042 1.109-1.702 2.488-1.612 1.505.098 2.998.353 4.459.536.609-1.682.679-2.683.413-5.545-1.017-.382-2.118-.718-3.153-1.196-4.191-1.933-5.113-6.118-2.145-9.657a11.064 11.064 0 014.678-3.435 2.18 2.18 0 001.61-2.25 5.786 5.786 0 01.507-2.303 1.694 1.694 0 011.332-.82 1.717 1.717 0 011.147 1.073c.181.926.281 1.868.296 2.812a29.61 29.61 0 012.954.834c1.547.609 2.28 1.81 2.091 3.177-.167 1.211-.826 1.62-1.955 1.123-.985-.43-1.906-1.075-3.212-.54zm-3.82 1.58c-2.122 1.26-3.206 2.598-2.815 3.595.468 1.19 1.555 1.491 2.815 1.655v-5.25zm3.962 14.943c1.409-.52 2.701-1.143 2.658-2.57-.035-1.198-1.355-1.445-2.428-1.606-.062-.009-.132.046-.404.148 0 .834-.015 1.746.007 2.657.01.4.095.797.167 1.371z"/><path d="M148.574 4.655c7.178 4.91 9.836 12.167 10.637 20.436 1.402 14.49-7.196 23.516-17.279 27.37-8.307 3.177-16.827 4.791-25.667 2.196-10.252-3.01-16.297-11.233-16.675-21.89-.473-13.315 7.51-25.447 20.597-30.795 7.968-3.25 23.446-.695 28.387 2.683zM124.21 48.567c4.34.518 12.236-1.346 16.146-3.065 7.211-3.171 12.492-9.01 11.265-19.669-1.024-8.89-5.536-15.663-14.144-17.445-4.493-.93-13.267-1.348-17.732.546-9.748 4.135-13.533 13.915-13.025 24.601.496 10.452 11.027 14.264 17.49 15.035v-.003z"/></g><defs><clipPath id="ga"><path transform="translate(.144 .455)" d="M0 0h167.366v152.27H0z"/></clipPath></defs></svg><svg viewBox="0 0 24 24" id="close" xmlns="http://www.w3.org/2000/svg"><path d="M6 18L18 6M6 6l12 12"/></svg></svg>